# xmcd
#
# Track frame offsets: 
#        150
#        21060
#        37327
#        54829
#        72395
#        91418
#        119227
#        137774
#        160926
#        177640
#        192996
#        210206
#        226371
#        238086
#        261836
#        282311
#        294283
#        327008
#
# Disc length: 4710 seconds
#
# Revision: 0
# Processed by: cddbd v1.5.1PL0 Copyright (c) Steve Scherf et al.
# Submitted via: ExactAudioCopy v0.95b1
#
DISCID=0f126412
DTITLE=vienna boys choir - vienno boys choir goes pop
DYEAR=2005
DGENRE=Pop
TTITLE0=My Heart Wil Go On
TTITLE1=All You Need Is Love
TTITLE2=Get Down
TTITLE3=Fantasy
TTITLE4=The Power Of Goodbye
TTITLE5=Nothing else Matters
TTITLE6=Nothing Compares To you
TTITLE7=Message In A Bottle
TTITLE8=Supreme
TTITLE9=Eternal Flame
TTITLE10=Burning Down The House
TTITLE11=Only Time
TTITLE12=Vergnuegungszug
TTITLE13=Wiener Blut
TTITLE14=G'schichten Aus em Wienerwald
TTITLE15=Tritsch Tratsch
TTITLE16=Kaiserwalzer
TTITLE17=An Der Schoenen Blaven Donav
EXTD=
EXTT0=
EXTT1=
EXTT2=
EXTT3=
EXTT4=
EXTT5=
EXTT6=
EXTT7=
EXTT8=
EXTT9=
EXTT10=
EXTT11=
EXTT12=
EXTT13=
EXTT14=
EXTT15=
EXTT16=
EXTT17=
PLAYORDER=
